<?xml version="1.0" encoding="utf-8"?>
<!-- Generator: Adobe Illustrator 18.0.0, SVG Export Plug-In . SVG Version: 6.00 Build 0)  -->
<!DOCTYPE svg PUBLIC "-//W3C//DTD SVG 1.1//EN" "http://www.w3.org/Graphics/SVG/1.1/DTD/svg11.dtd">
<svg version="1.1" id="Layer_1" xmlns="http://www.w3.org/2000/svg" xmlns:xlink="http://www.w3.org/1999/xlink" x="0px" y="0px"
	 viewBox="0 0 277.1 285.1" enable-background="new 0 0 277.1 285.1" xml:space="preserve">
<g>
	<g>
		<g>
			<path fill="#106581" d="M136.4,107.5v9.6c0,2.8-2.7,4.8-5.4,3.9c-2.3-0.8-4.4-2.6-4.4-6.5L136.4,107.5z"/>
			<path fill="#106581" d="M132.3,122.6c-0.6,0-1.2-0.1-1.7-0.3c-3.4-1.2-5.3-4-5.3-7.8c0-0.4,0.2-0.9,0.6-1.1l9.8-7
				c0.4-0.3,1-0.3,1.4-0.1c0.5,0.2,0.7,0.7,0.7,1.2v9.6C137.7,120.1,135.3,122.6,132.3,122.6z M128,115.2c0.2,2.3,1.3,3.8,3.5,4.5
				c0.3,0.1,0.6,0.1,0.8,0.1c1.5,0,2.7-1.3,2.7-2.8v-6.9L128,115.2z"/>
		</g>
		<g>
			<path fill="#106581" d="M139.8,107.5v9.6c0,2.8,2.7,4.8,5.4,3.9c2.3-0.8,4.4-2.6,4.4-6.5L139.8,107.5z"/>
			<path fill="#106581" d="M143.9,122.6C143.9,122.6,143.9,122.6,143.9,122.6c-3,0-5.5-2.5-5.5-5.5v-9.6c0-0.5,0.3-1,0.7-1.2
				c0.5-0.2,1-0.2,1.4,0.1l9.8,7c0.4,0.3,0.6,0.7,0.6,1.1c0,3.8-1.9,6.6-5.3,7.8C145,122.5,144.5,122.6,143.9,122.6z M141.2,110.1
				v6.9c0,1.5,1.2,2.8,2.7,2.8c0,0,0,0,0,0c0.3,0,0.6,0,0.8-0.1c2.1-0.7,3.3-2.2,3.5-4.5L141.2,110.1z"/>
		</g>
	</g>
	<path fill="#106581" d="M138.1,90.8c-0.5,0-1-0.3-1.2-0.7l-3.9-7.3c-2.1-3.9-6-6.6-10.4-7.2l-20.3-2.7c-0.8-0.1-1.3-0.8-1.2-1.5
		c0.1-0.8,0.8-1.3,1.5-1.2l20.3,2.7c5.3,0.7,9.9,3.9,12.4,8.6l2.7,5l2.7-5c2.5-4.7,7.1-7.9,12.4-8.6l20.3-2.7
		c0.8-0.1,1.4,0.4,1.5,1.2c0.1,0.8-0.4,1.4-1.2,1.5l-20.3,2.7c-4.4,0.6-8.3,3.3-10.4,7.2l-3.9,7.3C139,90.5,138.6,90.8,138.1,90.8z"
		/>
	<g>
		<path fill="#2F9CD2" d="M127.2,69.2c-4.4,0-8.1-3.6-8.1-8.1V16.7c0-0.8,0.6-1.4,1.4-1.4s1.4,0.6,1.4,1.4v44.4
			c0,2.9,2.4,5.3,5.3,5.3s5.3-2.4,5.3-5.3V14.4c0-0.8,0.6-1.4,1.4-1.4s1.4,0.6,1.4,1.4v46.7C135.3,65.6,131.7,69.2,127.2,69.2z"/>
		<path fill="#2F9CD2" d="M105.6,65.9c-4.4,0-8.1-3.6-8.1-8.1V29.5c0-0.8,0.6-1.4,1.4-1.4s1.4,0.6,1.4,1.4v28.4
			c0,2.9,2.4,5.3,5.3,5.3s5.3-2.4,5.3-5.3v-38c0-0.8,0.6-1.4,1.4-1.4s1.4,0.6,1.4,1.4v38C113.6,62.3,110,65.9,105.6,65.9z"/>
		<path fill="#2F9CD2" d="M148.9,62.2c-4.4,0-8.1-3.6-8.1-8.1V14.3c0-0.8,0.6-1.4,1.4-1.4s1.4,0.6,1.4,1.4v39.8
			c0,2.9,2.4,5.3,5.3,5.3s5.3-2.4,5.3-5.3V16.7c0-0.8,0.6-1.4,1.4-1.4s1.4,0.6,1.4,1.4v37.4C157,58.6,153.4,62.2,148.9,62.2z"/>
		<path fill="#2F9CD2" d="M170.6,65.9c-4.4,0-8.1-3.6-8.1-8.1v-38c0-0.8,0.6-1.4,1.4-1.4s1.4,0.6,1.4,1.4v38c0,2.9,2.4,5.3,5.3,5.3
			s5.3-2.4,5.3-5.3V29.5c0-0.8,0.6-1.4,1.4-1.4s1.4,0.6,1.4,1.4v28.4C178.6,62.3,175,65.9,170.6,65.9z"/>
		<path fill="#2F9CD2" d="M192.2,65.9c-4.4,0-8.1-3.6-8.1-8.1V40.6c0-0.8,0.6-1.4,1.4-1.4s1.4,0.6,1.4,1.4v17.3
			c0,2.9,2.4,5.3,5.3,5.3c0.4,0,0.8,0,1.2-0.1c0.7-0.2,1.5,0.3,1.6,1s-0.3,1.5-1,1.6C193.4,65.9,192.8,65.9,192.2,65.9z"/>
		<path fill="#2F9CD2" d="M83.9,65.9c-0.6,0-1.1,0-1.8-0.2c-0.7-0.2-1.2-0.9-1-1.7c0.2-0.7,0.9-1.2,1.7-1c0.4,0.1,0.6,0.1,1.1,0.1
			c2.9,0,5.3-2.4,5.3-5.3V40.2c0-0.8,0.6-1.4,1.4-1.4s1.4,0.6,1.4,1.4v17.6C92,62.3,88.4,65.9,83.9,65.9z"/>
	</g>
	<path fill="#106581" d="M123.2,155.4c-0.8,0-1.4-0.6-1.4-1.4v-7.5c0-0.8,0.6-1.4,1.4-1.4s1.4,0.6,1.4,1.4v7.5
		C124.6,154.7,124,155.4,123.2,155.4z"/>
	<path fill="#106581" d="M131.5,155.4c-0.8,0-1.4-0.6-1.4-1.4v-10.8c0-0.8,0.6-1.4,1.4-1.4s1.4,0.6,1.4,1.4V154
		C132.8,154.7,132.2,155.4,131.5,155.4z"/>
	<path fill="#106581" d="M139.8,156.2c-0.8,0-1.4-0.6-1.4-1.4v-13.9c0-0.8,0.6-1.4,1.4-1.4s1.4,0.6,1.4,1.4v13.9
		C141.2,155.5,140.5,156.2,139.8,156.2z"/>
	<path fill="#106581" d="M148.1,156c-0.8,0-1.4-0.6-1.4-1.4V138c0-0.8,0.6-1.4,1.4-1.4s1.4,0.6,1.4,1.4v16.6
		C149.5,155.3,148.9,156,148.1,156z"/>
	<path fill="#106581" d="M156.7,154.9c-0.8,0-1.4-0.6-1.4-1.4v-16.8c0-0.8,0.6-1.4,1.4-1.4s1.4,0.6,1.4,1.4v16.8
		C158.1,154.3,157.5,154.9,156.7,154.9z"/>
	<path fill="#2F9CD2" d="M95.5,156.2C95.5,156.2,95.5,156.2,95.5,156.2c-0.8,0-1.4-0.6-1.4-1.4c0-0.3,0-8,2-18.3
		c2.1-10.8,18.8-22.7,19.6-23.2c0.6-0.4,1.5-0.3,1.9,0.3c0.4,0.6,0.3,1.5-0.3,1.9c-0.2,0.1-16.6,11.8-18.4,21.5
		c-1.9,10.1-2,17.8-2,17.8C96.9,155.5,96.3,156.2,95.5,156.2z"/>
	<path fill="#2F9CD2" d="M95.5,124.8c-0.4,0-0.8-0.2-1.1-0.5c-0.5-0.6-0.3-1.5,0.3-1.9l18-13.8c0.6-0.5,1.5-0.3,1.9,0.3
		c0.5,0.6,0.3,1.5-0.3,1.9l-18,13.8C96.1,124.7,95.8,124.8,95.5,124.8z"/>
	<path fill="#2F9CD2" d="M86.7,124.3c-0.2,0-0.4,0-0.6-0.1c-0.7-0.3-1-1.1-0.6-1.8c2.3-4.8,8.1-8.5,8.3-8.6c0.6-0.4,1.5-0.2,1.9,0.4
		c0.4,0.6,0.2,1.5-0.4,1.9c-0.1,0-5.4,3.4-7.3,7.5C87.7,124,87.2,124.3,86.7,124.3z"/>
	<path fill="#2F9CD2" d="M90,111.6c-0.4,0-0.8-0.2-1.1-0.5c-0.5-0.6-0.4-1.4,0.2-1.9l4.2-3.5c0.6-0.5,1.5-0.4,1.9,0.2
		c0.5,0.6,0.4,1.4-0.2,1.9l-4.2,3.5C90.6,111.4,90.3,111.6,90,111.6z"/>
	<path fill="#106581" d="M147.4,108.2c-0.3,0-0.6-0.1-0.8-0.4c-3.5-4.2-7.6-5.6-8.6-5.8c-1,0.3-5.1,1.6-8.6,5.8
		c-0.4,0.4-1,0.5-1.4,0.1c-0.4-0.4-0.5-1-0.1-1.4c4.4-5.4,9.7-6.5,9.9-6.6c0.1,0,0.3,0,0.4,0c0.2,0,5.5,1.2,9.9,6.6
		c0.4,0.4,0.3,1.1-0.1,1.4C147.9,108.1,147.6,108.2,147.4,108.2z"/>
	<path fill="#2F9CD2" d="M133.2,92.4c-0.1,0-0.3,0-0.4-0.1L95,81c-0.7-0.2-1.1-1-0.9-1.7c0.2-0.7,1-1.1,1.7-0.9l37.9,11.4
		c0.7,0.2,1.1,1,0.9,1.7C134.3,92,133.8,92.4,133.2,92.4z"/>
	<path fill="#2F9CD2" d="M142.9,92.4c-0.6,0-1.1-0.4-1.3-1c-0.2-0.7,0.2-1.5,0.9-1.7l37.9-11.4c0.7-0.2,1.5,0.2,1.7,0.9
		c0.2,0.7-0.2,1.5-0.9,1.7l-37.9,11.4C143.2,92.4,143.1,92.4,142.9,92.4z"/>
	<path fill="#2F9CD2" d="M88.9,138.4c-0.2,0-0.4,0-0.6-0.1c-0.7-0.3-0.9-1.2-0.6-1.8l3.2-6.3c0.3-0.7,1.2-0.9,1.8-0.6
		c0.7,0.3,0.9,1.2,0.6,1.8l-3.2,6.3C89.8,138.2,89.4,138.4,88.9,138.4z"/>
	<path fill="#2F9CD2" d="M81.5,89.7c-0.2,0-0.3,0-0.5-0.1c-0.7-0.3-1-1.1-0.7-1.8c0.1-0.3,3.5-8.5,9.3-10.6c0.7-0.3,1.5,0.1,1.8,0.8
		c0.3,0.7-0.1,1.5-0.8,1.8c-3.9,1.4-6.9,7-7.7,9.1C82.5,89.3,82,89.7,81.5,89.7z"/>
	<path fill="#2F9CD2" d="M81.3,75.5c-0.3,0-0.5-0.1-0.7-0.2c-0.6-0.4-0.8-1.3-0.4-1.9c0.2-0.2,3.8-5.7,12.9-5.3
		c0.8,0,1.3,0.7,1.3,1.4c0,0.8-0.7,1.3-1.4,1.3c-7.5-0.3-10.4,4-10.5,4C82.1,75.3,81.7,75.5,81.3,75.5z"/>
	<path fill="#106581" d="M131.5,127.4c-0.4,0-0.7-0.1-1-0.2c-3.2-1.1-6.6-8.1-6.6-12.2c0-0.8,0.6-1.4,1.4-1.4c0,0,0,0,0,0
		c0.8,0,1.4,0.6,1.4,1.4c0,3.6,3.1,9.1,4.7,9.6c0.1,0,0.3-0.1,0.5-0.2c1.5-1.1,3.1-5,3.1-7c0-0.8,0.6-1.4,1.4-1.4s1.4,0.6,1.4,1.4
		c0,2.5-1.8,7.5-4.2,9.2C132.8,127.3,132.1,127.4,131.5,127.4z"/>
	<path fill="#106581" d="M144.6,127.4c-0.6,0-1.3-0.2-2-0.7c-2.5-1.8-4.2-6.7-4.2-9.2c0-0.8,0.6-1.4,1.4-1.4s1.4,0.6,1.4,1.4
		c0,2,1.6,5.9,3.1,7c0.1,0.1,0.3,0.2,0.5,0.2c1.6-0.5,4.7-6,4.7-9.6c0-0.8,0.6-1.4,1.4-1.4c0,0,0,0,0,0c0.8,0,1.4,0.6,1.4,1.4
		c0,4.1-3.4,11.1-6.6,12.2C145.3,127.4,145,127.4,144.6,127.4z"/>
	<path fill="#2F9CD2" d="M123.2,141.3c-0.8,0-1.4-0.6-1.4-1.4v-2.3c0-0.8,0.6-1.4,1.4-1.4s1.4,0.6,1.4,1.4v2.3
		C124.6,140.6,124,141.3,123.2,141.3z"/>
	<path fill="#2F9CD2" d="M107.8,148.8c-0.8,0-1.4-0.6-1.4-1.4v-2.3c0-0.8,0.6-1.4,1.4-1.4s1.4,0.6,1.4,1.4v2.3
		C109.2,148.2,108.6,148.8,107.8,148.8z"/>
	<path fill="#2F9CD2" d="M117.3,165.1c-0.8,0-1.4-0.6-1.4-1.4v-2.3c0-0.8,0.6-1.4,1.4-1.4s1.4,0.6,1.4,1.4v2.3
		C118.7,164.5,118.1,165.1,117.3,165.1z"/>
	<path fill="#106581" d="M141,160.1c-8.4,0-18.7-0.7-31.3-2.1c-0.8-0.1-1.3-0.8-1.2-1.5c0.1-0.8,0.8-1.3,1.5-1.2
		c11.4,1.2,46,5,54.2-2.3c1.1-1,1.6-2.1,1.6-3.5l-0.1-5.2c0-0.8,0.6-1.4,1.4-1.4c0.8,0,1.4,0.6,1.4,1.4l0.1,5.2c0,2.1-0.9,4-2.5,5.5
		C162.3,158.5,154.1,160.1,141,160.1z"/>
	<path fill="#2F9CD2" d="M144,140.4c-0.8,0-1.4-0.6-1.4-1.4v-4.1c0-0.8,0.6-1.4,1.4-1.4s1.4,0.6,1.4,1.4v4.1
		C145.4,139.8,144.7,140.4,144,140.4z"/>
	<path fill="#2F9CD2" d="M112.2,143.3c-0.8,0-1.4-0.6-1.4-1.4v-13.1c0-0.8,0.6-1.4,1.4-1.4s1.4,0.6,1.4,1.4v13.1
		C113.6,142.7,113,143.3,112.2,143.3z"/>
	<path fill="#2F9CD2" d="M123.6,177.5c-0.8,0-1.4-0.6-1.4-1.4v-13.1c0-0.8,0.6-1.4,1.4-1.4s1.4,0.6,1.4,1.4v13.1
		C125,176.9,124.4,177.5,123.6,177.5z"/>
	<path fill="#2F9CD2" d="M117.9,138.9c-0.8,0-1.4-0.6-1.4-1.4V130c0-0.8,0.6-1.4,1.4-1.4s1.4,0.6,1.4,1.4v7.5
		C119.3,138.3,118.7,138.9,117.9,138.9z"/>
	<path fill="#2F9CD2" d="M180.6,156.2c-0.8,0-1.4-0.6-1.4-1.4c0-0.1,0-7.7-2-17.8c-1.9-9.7-18.3-21.4-18.4-21.5
		c-0.6-0.4-0.8-1.3-0.3-1.9c0.4-0.6,1.3-0.8,1.9-0.3c0.7,0.5,17.5,12.4,19.6,23.2c2,10.4,2,18,2,18.3
		C182,155.5,181.3,156.2,180.6,156.2C180.6,156.2,180.6,156.2,180.6,156.2z"/>
	<path fill="#2F9CD2" d="M180.6,124.8c-0.3,0-0.6-0.1-0.8-0.3l-18-13.8c-0.6-0.5-0.7-1.3-0.3-1.9c0.5-0.6,1.3-0.7,1.9-0.3l18,13.8
		c0.6,0.5,0.7,1.3,0.3,1.9C181.4,124.6,181,124.8,180.6,124.8z"/>
	<path fill="#2F9CD2" d="M189.4,124.3c-0.5,0-1-0.3-1.2-0.8c-1.9-4.1-7.3-7.4-7.3-7.5c-0.6-0.4-0.8-1.2-0.4-1.9
		c0.4-0.6,1.2-0.8,1.9-0.4c0.2,0.2,6.1,3.8,8.3,8.6c0.3,0.7,0,1.5-0.6,1.8C189.8,124.2,189.6,124.3,189.4,124.3z"/>
	<path fill="#2F9CD2" d="M186.2,111.6c-0.3,0-0.6-0.1-0.9-0.3l-4.2-3.5c-0.6-0.5-0.7-1.3-0.2-1.9c0.5-0.6,1.3-0.7,1.9-0.2l4.2,3.5
		c0.6,0.5,0.7,1.3,0.2,1.9C186.9,111.4,186.6,111.6,186.2,111.6z"/>
	<path fill="#2F9CD2" d="M187.3,138.4c-0.5,0-1-0.3-1.2-0.8l-3.2-6.3c-0.3-0.7-0.1-1.5,0.6-1.8c0.7-0.3,1.5-0.1,1.8,0.6l3.2,6.3
		c0.3,0.7,0.1,1.5-0.6,1.8C187.7,138.4,187.5,138.4,187.3,138.4z"/>
	<path fill="#2F9CD2" d="M194.7,89.7c-0.5,0-1.1-0.3-1.3-0.9c0-0.1-3.1-7.4-7.7-9.1c-0.7-0.3-1.1-1.1-0.8-1.8
		c0.3-0.7,1.1-1.1,1.8-0.8c5.8,2.1,9.2,10.3,9.3,10.6c0.3,0.7,0,1.5-0.7,1.8C195,89.6,194.8,89.7,194.7,89.7z"/>
	<path fill="#2F9CD2" d="M194.9,75.5c-0.4,0-0.9-0.2-1.1-0.6c-0.1-0.2-3-4.4-10.5-4c-0.8,0-1.4-0.6-1.4-1.3c0-0.8,0.6-1.4,1.3-1.4
		c9.1-0.4,12.7,5,12.9,5.3c0.4,0.6,0.2,1.5-0.4,1.9C195.4,75.5,195.1,75.5,194.9,75.5z"/>
	<path fill="#2F9CD2" d="M149.7,133.9c-0.8,0-1.4-0.6-1.4-1.4v-2.3c0-0.8,0.6-1.4,1.4-1.4s1.4,0.6,1.4,1.4v2.3
		C151.1,133.2,150.5,133.9,149.7,133.9z"/>
	<path fill="#2F9CD2" d="M161.9,180.6c-0.8,0-1.4-0.6-1.4-1.4v-8.5c0-0.8,0.6-1.4,1.4-1.4s1.4,0.6,1.4,1.4v8.5
		C163.2,180,162.6,180.6,161.9,180.6z"/>
	<path fill="#2F9CD2" d="M158.8,165.1c-0.8,0-1.4-0.6-1.4-1.4v-2.3c0-0.8,0.6-1.4,1.4-1.4s1.4,0.6,1.4,1.4v2.3
		C160.2,164.5,159.6,165.1,158.8,165.1z"/>
	<path fill="#2F9CD2" d="M133.3,136.5c-0.8,0-1.4-0.6-1.4-1.4v-2.3c0-0.8,0.6-1.4,1.4-1.4s1.4,0.6,1.4,1.4v2.3
		C134.7,135.8,134.1,136.5,133.3,136.5z"/>
	<path fill="#2F9CD2" d="M131.5,181.7c-0.8,0-1.4-0.6-1.4-1.4V178c0-0.8,0.6-1.4,1.4-1.4s1.4,0.6,1.4,1.4v2.3
		C132.8,181.1,132.2,181.7,131.5,181.7z"/>
	<path fill="#2F9CD2" d="M167.2,165.6c-0.8,0-1.4-0.6-1.4-1.4v-2.3c0-0.8,0.6-1.4,1.4-1.4s1.4,0.6,1.4,1.4v2.3
		C168.6,165,168,165.6,167.2,165.6z"/>
	<path fill="#2F9CD2" d="M109.9,167.9c-0.8,0-1.4-0.6-1.4-1.4v-2.3c0-0.8,0.6-1.4,1.4-1.4s1.4,0.6,1.4,1.4v2.3
		C111.3,167.3,110.6,167.9,109.9,167.9z"/>
	<path fill="#2F9CD2" d="M163.9,135.2c-0.8,0-1.4-0.6-1.4-1.4v-4.9c0-0.8,0.6-1.4,1.4-1.4s1.4,0.6,1.4,1.4v4.9
		C165.3,134.5,164.7,135.2,163.9,135.2z"/>
	<path fill="#2F9CD2" d="M152.5,177.5c-0.8,0-1.4-0.6-1.4-1.4v-13.1c0-0.8,0.6-1.4,1.4-1.4s1.4,0.6,1.4,1.4v13.1
		C153.8,176.9,153.2,177.5,152.5,177.5z"/>
	<path fill="#2F9CD2" d="M154,127.6c-0.8,0-1.4-0.6-1.4-1.4v-7.3c0-0.8,0.6-1.4,1.4-1.4s1.4,0.6,1.4,1.4v7.3
		C155.4,126.9,154.8,127.6,154,127.6z"/>
	<path fill="#2F9CD2" d="M138.1,170.5c-0.8,0-1.4-0.6-1.4-1.4v-5.4c0-0.8,0.6-1.4,1.4-1.4s1.4,0.6,1.4,1.4v5.4
		C139.4,169.9,138.8,170.5,138.1,170.5z"/>
	<path fill="#106581" d="M83.3,123.6c-3.2,0-6.7-3.4-10.2-10c-5.6-10.6-7.9-25.6-4.7-31c1.1-1.8,2.5-2.2,3.5-2.2
		c6.6,0,10.8,10,11.3,11.2c0.3,0.7-0.1,1.5-0.8,1.8c-0.7,0.3-1.5-0.1-1.8-0.8c-1.1-2.6-4.7-9.5-8.7-9.5c-0.3,0-0.7,0.1-1.2,0.8
		c-2.4,4-0.7,18.2,4.7,28.3c4.1,7.7,6.8,8.6,7.8,8.6c0,0,0,0,0,0c1.1,0,1.6-1,1.8-1.3c0.3-0.7,1.2-1,1.8-0.6c0.7,0.3,1,1.2,0.6,1.8
		C86.7,122.5,85.1,123.5,83.3,123.6C83.3,123.6,83.3,123.6,83.3,123.6z"/>
	<path fill="#106581" d="M83.1,100.8c-0.5,0-0.9-0.2-1.2-0.6c-5.2-8.2-7-7.8-7-7.8c-0.2,0-0.5,0.7-0.5,1.1c-0.1,0.8-0.8,1.3-1.5,1.2
		c-0.8-0.1-1.3-0.8-1.2-1.5c0-0.3,0.4-3,2.6-3.5c2.6-0.6,5.6,2.2,10,9c0.4,0.6,0.2,1.5-0.4,1.9C83.7,100.7,83.4,100.8,83.1,100.8z"
		/>
	<path fill="#106581" d="M82,115.6c-3.3,0-6.4-8.6-8.4-15.9c-0.2-0.7,0.2-1.5,1-1.7c0.7-0.2,1.5,0.2,1.7,1
		c1.8,6.5,4.3,12.6,5.6,13.7c0.3-0.4,0.8-1.8,1.2-5.4c0.1-0.8,0.7-1.3,1.5-1.2c0.8,0.1,1.3,0.8,1.2,1.5c-0.6,5.5-1.6,7.8-3.6,8
		C82.1,115.6,82,115.6,82,115.6z"/>
	<path fill="#106581" d="M80.5,105.4c-0.5,0-1.1-0.3-1.3-0.9c-1.3-3.3-1.4-5.6-0.3-7.1c1.1-1.5,2.9-1.4,3.1-1.4
		c0.8,0.1,1.3,0.7,1.2,1.5c-0.1,0.7-0.7,1.3-1.5,1.2c0,0-0.5,0-0.7,0.3c-0.3,0.5-0.4,1.9,0.6,4.4c0.3,0.7-0.1,1.5-0.8,1.8
		C80.9,105.4,80.7,105.4,80.5,105.4z"/>
	<path fill="#106581" d="M192.9,123.6C192.9,123.6,192.9,123.6,192.9,123.6c-1.8,0-3.4-1.1-4.3-2.8c-0.3-0.7-0.1-1.5,0.6-1.8
		c0.7-0.3,1.5-0.1,1.8,0.6c0.2,0.3,0.7,1.3,1.8,1.3c1,0.1,3.7-0.8,7.8-8.6c5.4-10.1,7.1-24.3,4.7-28.3c-0.4-0.7-0.9-0.8-1.2-0.8
		c-4,0-7.7,6.8-8.7,9.5c-0.3,0.7-1.1,1-1.8,0.8c-0.7-0.3-1-1.1-0.8-1.8c0.5-1.1,4.7-11.2,11.3-11.2c1,0,2.5,0.4,3.5,2.2
		c3.2,5.4,1,20.5-4.7,31C199.6,120.2,196.2,123.6,192.9,123.6z"/>
	<path fill="#106581" d="M193,100.8c-0.3,0-0.5-0.1-0.7-0.2c-0.6-0.4-0.8-1.3-0.4-1.9c4.3-6.8,7.4-9.6,10-9c2.2,0.5,2.6,3.2,2.6,3.5
		c0.1,0.8-0.5,1.4-1.2,1.5c-0.8,0.1-1.4-0.5-1.5-1.2c-0.1-0.5-0.4-1.1-0.5-1.2c0,0-1.9-0.3-7,7.8C193.9,100.5,193.5,100.8,193,100.8
		z"/>
	<path fill="#106581" d="M194.2,115.6c-0.1,0-0.1,0-0.2,0c-2-0.2-3-2.5-3.6-8c-0.1-0.8,0.5-1.4,1.2-1.5c0.8-0.1,1.4,0.5,1.5,1.2
		c0.4,3.6,0.9,5,1.2,5.4c1.3-1.1,3.9-7.3,5.6-13.7c0.2-0.7,1-1.2,1.7-1c0.7,0.2,1.2,1,1,1.7C200.6,107,197.5,115.6,194.2,115.6z"/>
	<path fill="#106581" d="M195.6,105.4c-0.2,0-0.3,0-0.5-0.1c-0.7-0.3-1-1.1-0.8-1.8c1-2.5,1-3.9,0.6-4.4c-0.2-0.3-0.6-0.3-0.7-0.3
		c-0.8,0-1.4-0.5-1.4-1.3c0-0.7,0.5-1.4,1.2-1.5c0.2,0,2-0.1,3.1,1.4c1.1,1.5,1,3.8-0.3,7.1C196.7,105.1,196.2,105.4,195.6,105.4z"
		/>
	<path fill="#106581" d="M138.1,189.1c-37.4,0-50.4-51.2-50.5-51.7c0,0,0-0.1,0-0.1l-8-52.7c0-0.1,0-0.1,0-0.2
		c0-68,47.2-71.4,56.6-71.4c1,0,1.7,0,2,0.1c0.3,0,0.9-0.1,2-0.1c9.5,0,56.6,3.4,56.6,71.4c0,0.1,0,0.1,0,0.2l-8,52.7
		c0,0,0,0.1,0,0.1C188.5,137.9,175.5,189.1,138.1,189.1z M90.2,136.8c0.5,1.9,13.1,49.6,47.9,49.6c34.8,0,47.4-47.7,47.9-49.6
		l8-52.5c0-27.6-7.9-47.4-23.3-58.7c-12.1-8.9-25.4-9.9-30.6-9.9c-1.2,0-1.8,0.1-1.9,0.1c-0.1,0-0.1,0-0.2,0c0,0-0.7-0.1-1.9-0.1
		c-5.1,0-18.4,1-30.6,9.9C90.1,36.9,82.3,56.7,82.2,84.3L90.2,136.8z"/>
	<g>
		<path fill="#106581" d="M106.7,104.5c-4.5,0-8.2-3.7-8.2-8.2s3.7-8.2,8.2-8.2s8.2,3.7,8.2,8.2S111.2,104.5,106.7,104.5z
			 M106.7,90.8c-3,0-5.5,2.5-5.5,5.5s2.5,5.5,5.5,5.5s5.5-2.5,5.5-5.5S109.7,90.8,106.7,90.8z"/>
		<path fill="#106581" d="M106.9,110.9c-3.2,0-6.2-0.4-9-1.1c-3.8-1-6.7-3.1-8.4-6.2c-2.2-4-2.5-9.6-0.7-15.6
			c0.4-1.4,1.4-2.6,2.7-3.3c1.3-0.7,2.9-0.9,4.3-0.4L133,95.6c2.6-1.5,4.6-1.9,4.8-1.9c0.2,0,0.4,0,0.6,0c0.1,0,2.1,0.5,4.8,1.9
			l37.3-11.2c1.5-0.4,3-0.3,4.3,0.4c1.3,0.7,2.3,1.9,2.7,3.3c1.8,5.9,1.5,11.6-0.7,15.6c-1.7,3.1-4.6,5.1-8.4,6.2
			c-9.9,2.6-24.4,0.6-30.7-7c-1.7-2.1-3.6-3.6-5.2-4.6c-0.1,0-0.1-0.1-0.2-0.1c-1.9-1.1-3.4-1.6-4.1-1.8c-1.2,0.3-5.7,1.8-9.5,6.5
			C124,108.4,115.2,110.9,106.9,110.9z M94.1,86.8c-0.5,0-1,0.1-1.4,0.4c-0.7,0.4-1.1,1-1.4,1.7c-1.6,5.2-1.4,10.1,0.5,13.5
			c1.4,2.4,3.6,4,6.7,4.8c11.6,3,23.5-0.8,27.9-6.1c1.2-1.4,2.4-2.6,3.6-3.6L95,87C94.7,86.9,94.4,86.8,94.1,86.8z M146,97.5
			c1.2,1,2.4,2.1,3.6,3.6c4.3,5.3,16.2,9.1,27.9,6.1c3.1-0.8,5.4-2.4,6.7-4.8c1.9-3.3,2.1-8.2,0.5-13.5c-0.2-0.7-0.7-1.3-1.4-1.7
			c-0.7-0.4-1.5-0.5-2.2-0.2L146,97.5z"/>
		<path fill="#106581" d="M169.5,104.5c-4.5,0-8.2-3.7-8.2-8.2s3.7-8.2,8.2-8.2s8.2,3.7,8.2,8.2S174,104.5,169.5,104.5z M169.5,90.8
			c-3,0-5.5,2.5-5.5,5.5s2.5,5.5,5.5,5.5s5.5-2.5,5.5-5.5S172.5,90.8,169.5,90.8z"/>
		<path fill="#FF5F58" d="M169.5,99.8c-1.9,0-3.5-1.6-3.5-3.5s1.6-3.5,3.5-3.5c1.9,0,3.5,1.6,3.5,3.5S171.4,99.8,169.5,99.8z"/>
		<path fill="#FF5F58" d="M106.7,99.8c-1.9,0-3.5-1.6-3.5-3.5s1.6-3.5,3.5-3.5s3.5,1.6,3.5,3.5S108.6,99.8,106.7,99.8z"/>
	</g>
	<path fill="#106581" d="M173.7,168c-0.8,0-1.4-0.6-1.4-1.4v-14.3c0-7.3-2.5-14.3-7.2-19.9c-11.2-13.6-20.8-22.2-27.1-24.3
		c-6.2,2.1-15.8,10.7-27.1,24.3c-4.6,5.6-7.2,12.7-7.2,19.9v14.3c0,0.8-0.6,1.4-1.4,1.4s-1.4-0.6-1.4-1.4v-14.3
		c0-7.9,2.8-15.6,7.8-21.7c8.4-10.1,20.1-22.7,28.8-25.3c0.3-0.1,0.5-0.1,0.8,0c8.7,2.6,20.4,15.2,28.8,25.3
		c5,6.1,7.8,13.8,7.8,21.7v14.3C175,167.4,174.4,168,173.7,168z"/>
	<path fill="#106581" d="M141,156.2c-8.3,0-18.5-0.7-31.3-2.1c-0.6-0.1-1.1-0.5-1.2-1.1c-0.1-0.6,0.2-1.2,0.7-1.5
		c1.3-0.7,33.6-17.2,50.7-16.2c3,0.2,8.6,2.6,8.6,10.2c0,4-2.9,6.9-8.5,8.6C155.6,155.5,149.3,156.2,141,156.2z M114.8,151.9
		c10.5,1,19.1,1.6,26.2,1.6c7.9,0,14.1-0.6,18.2-1.9c6.6-2,6.6-5,6.6-5.9c0-6.8-5.4-7.4-6.1-7.5c-0.5,0-0.9,0-1.4,0
		C145.3,138,123.8,147.5,114.8,151.9z"/>
	<path fill="#2F9CD2" d="M66,90.3c-0.8,0-1.5-0.5-1.9-1.2c-0.4-1,0.1-2.2,1.1-2.6l5.3-2.2c1-0.4,2.2,0.1,2.6,1.1
		c0.4,1-0.1,2.2-1.1,2.6l-5.3,2.2C66.5,90.2,66.3,90.3,66,90.3z"/>
	<path fill="#2F9CD2" d="M66,95.6c-0.8,0-1.5-0.5-1.9-1.2c-0.4-1,0.1-2.2,1.1-2.6l5.3-2.2c1-0.4,2.2,0.1,2.6,1.1s-0.1,2.2-1.1,2.6
		l-5.3,2.2C66.5,95.5,66.3,95.6,66,95.6z"/>
	<path fill="#2F9CD2" d="M66,100.9c-0.8,0-1.5-0.5-1.9-1.2c-0.4-1,0.1-2.2,1.1-2.6l5.3-2.2c1-0.4,2.2,0.1,2.6,1.1
		c0.4,1-0.1,2.2-1.1,2.6l-5.3,2.2C66.5,100.8,66.3,100.9,66,100.9z"/>
	<g>
		<path fill="#2F9CD2" d="M203.3,115.6c-0.3,0-0.5,0-0.8-0.1l-5.3-2.2c-1-0.4-1.5-1.6-1.1-2.6c0.4-1,1.6-1.5,2.6-1.1l5.3,2.2
			c1,0.4,1.5,1.6,1.1,2.6C204.8,115.1,204.1,115.6,203.3,115.6z"/>
		<path fill="#2F9CD2" d="M203.3,120.9c-0.3,0-0.5,0-0.8-0.1l-5.3-2.2c-1-0.4-1.5-1.6-1.1-2.6c0.4-1,1.6-1.5,2.6-1.1l5.3,2.2
			c1,0.4,1.5,1.6,1.1,2.6C204.8,120.4,204.1,120.9,203.3,120.9z"/>
	</g>
	<path fill="#106581" d="M58.7,194.4c-0.7,0-1.3-0.5-1.4-1.2c-0.1-0.8,0.4-1.4,1.2-1.5c24.1-3.4,40.9-25.6,41.1-25.8
		c0.5-0.6,1.3-0.7,1.9-0.3c0.6,0.5,0.7,1.3,0.3,1.9c-0.7,1-17.6,23.4-42.9,26.9C58.8,194.4,58.8,194.4,58.7,194.4z"/>
	<path fill="#2F9CD2" d="M128.7,223.7c-0.6,0-1.1-0.3-1.3-0.9l-12-31.2c-0.3-0.7,0.1-1.5,0.8-1.8c0.7-0.3,1.5,0.1,1.8,0.8l12,31.2
		c0.3,0.7-0.1,1.5-0.8,1.8C129.1,223.6,128.9,223.7,128.7,223.7z"/>
	<path fill="#2F9CD2" d="M69.3,206C69.3,206,69.2,206,69.3,206c-0.8,0-1.4-0.6-1.4-1.4c0-0.8,0.6-1.4,1.4-1.4c0,0,0,0,0.1,0
		c18,0,30.1-21.1,30.2-21.4c0.4-0.7,1.2-0.9,1.9-0.5c0.7,0.4,0.9,1.2,0.5,1.9c-0.1,0.2-3.3,5.8-8.8,11.3C85.6,202,77.4,206,69.3,206
		z"/>
	<path fill="#2F9CD2" d="M85,213.1c-0.7,0-1.3-0.6-1.4-1.3c0-0.8,0.5-1.4,1.3-1.4c7-0.3,14.7-10,14.7-10.1c0.5-0.6,1.3-0.7,1.9-0.2
		c0.6,0.5,0.7,1.3,0.2,1.9C101.5,202.3,93.3,212.6,85,213.1C85,213,85,213.1,85,213.1z"/>
	<path fill="#2F9CD2" d="M100.7,219.4c-0.7,0-1.2-0.5-1.4-1.1c-0.1-0.7,0.4-1.5,1.1-1.6c1.5-0.3,5.4-4.6,8.1-8.4
		c0.4-0.6,1.3-0.8,1.9-0.3c0.6,0.4,0.8,1.3,0.3,1.9c-1.5,2.1-6.6,9-9.9,9.6C100.9,219.4,100.8,219.4,100.7,219.4z"/>
	<g>
		<path fill="#106581" d="M215.6,194.4c-0.1,0-0.1,0-0.2,0c-25.3-3.5-42.2-26-42.9-26.9c-0.5-0.6-0.3-1.5,0.3-1.9
			c0.6-0.5,1.5-0.3,1.9,0.3c0.2,0.2,17,22.5,41.1,25.8c0.8,0.1,1.3,0.8,1.2,1.5C216.8,193.9,216.3,194.4,215.6,194.4z"/>
		<path fill="#2F9CD2" d="M145.6,223.7c-0.2,0-0.3,0-0.5-0.1c-0.7-0.3-1.1-1.1-0.8-1.8l12-31.2c0.3-0.7,1.1-1.1,1.8-0.8
			c0.7,0.3,1.1,1.1,0.8,1.8l-12,31.2C146.7,223.3,146.1,223.7,145.6,223.7z"/>
		<path fill="#2F9CD2" d="M205,206c-8.1,0-16.3-3.9-23.8-11.4c-5.6-5.6-8.7-11.1-8.8-11.3c-0.4-0.7-0.1-1.5,0.5-1.9
			c0.7-0.4,1.5-0.1,1.9,0.5c0.1,0.2,12.3,21.4,30.2,21.4c0,0,0,0,0.1,0c0.8,0,1.4,0.6,1.4,1.4C206.5,205.4,205.8,206,205,206
			C205.1,206,205,206,205,206z"/>
		<path fill="#2F9CD2" d="M189.3,213.1C189.3,213.1,189.3,213,189.3,213.1c-8.4-0.4-16.5-10.7-16.8-11.2c-0.5-0.6-0.4-1.5,0.2-1.9
			c0.6-0.5,1.5-0.4,1.9,0.2c0.1,0.1,7.7,9.8,14.7,10.1c0.8,0,1.3,0.7,1.3,1.4C190.7,212.5,190.1,213.1,189.3,213.1z"/>
		<path fill="#2F9CD2" d="M173.6,219.4c-0.1,0-0.2,0-0.2,0c-3.3-0.6-8.4-7.5-9.9-9.6c-0.4-0.6-0.3-1.5,0.3-1.9
			c0.6-0.4,1.5-0.3,1.9,0.3c2.7,3.9,6.6,8.2,8.1,8.4c0.7,0.1,1.3,0.8,1.1,1.6C174.8,219,174.2,219.4,173.6,219.4z"/>
	</g>
	<path fill="#FF5F58" d="M138.1,236.3c-54,0-97.9-43.9-97.9-97.9c0-28.7,12.5-55.8,34.4-74.5c0.6-0.5,1.4-0.4,1.9,0.2
		c0.5,0.6,0.4,1.4-0.2,1.9c-21.2,18.1-33.4,44.5-33.4,72.4c0,52.5,42.7,95.1,95.1,95.1s95.1-42.7,95.1-95.1
		c0-27.9-12.2-54.3-33.4-72.4c-0.6-0.5-0.6-1.4-0.2-1.9c0.5-0.6,1.4-0.6,1.9-0.2c21.8,18.6,34.4,45.8,34.4,74.5
		C235.9,192.4,192,236.3,138.1,236.3z"/>
	<g>
		<g>
			<path fill="#FF5F58" d="M28,162.9l-0.7-3.7c-0.2-1,0.5-1.9,1.4-2.1c1-0.2,1.9,0.5,2.1,1.4l2,11.2c0.2,1-0.5,1.9-1.4,2.1
				c-1,0.2-1.9-0.5-2.1-1.4l-0.7-3.7l-12.1,2.2c-1.1,0.2-2.1-0.5-2.3-1.6c-0.2-1.1,0.5-2.1,1.6-2.3L28,162.9z"/>
			<path fill="#FF5F58" d="M32.9,177c1-0.4,2.1,0.1,2.5,1.1c0.4,1-0.1,2.1-1.1,2.5l-4.9,1.9l2.6,6.7l4.9-1.9c1-0.4,2.1,0.1,2.5,1.1
				c0.4,1-0.1,2.1-1.1,2.5l-13.2,5c-1,0.4-2.1-0.1-2.5-1.1s0.1-2.1,1.1-2.5l5-1.9l-2.6-6.7l-5,1.9c-1,0.4-2.1-0.1-2.5-1.1
				c-0.4-1,0.1-2.1,1.1-2.5L32.9,177z"/>
			<path fill="#FF5F58" d="M29.5,204.4l11.7-7.2c0.9-0.6,2.1-0.3,2.7,0.6l5.1,8.3c0.5,0.8,0.2,1.9-0.6,2.4s-1.9,0.2-2.4-0.6
				l-4.1-6.7l-3.1,1.9l3.5,5.7c0.5,0.8,0.2,1.9-0.6,2.4s-1.9,0.2-2.4-0.6l-3.5-5.7l-3.2,1.9l4.2,6.8c0.5,0.8,0.2,1.9-0.6,2.4
				s-1.9,0.2-2.4-0.6l-5.2-8.4C28.3,206.1,28.6,205,29.5,204.4z"/>
			<path fill="#FF5F58" d="M59,221.5c0.7-0.8,1.9-0.9,2.7-0.1l4.6,4.2c1.5,1.4,2.3,2.8,2.4,4.3c0.1,1.1-0.3,2.1-1.1,3l0,0
				c-1.3,1.5-2.9,1.6-4.3,1.2c1,2,1.1,3.7-0.5,5.4l0,0c-2.2,2.4-5.2,1.8-8.2-0.9l-4.8-4.4c-0.8-0.7-0.9-1.9-0.1-2.7L59,221.5z
				 M56.9,236.2c1.3,1.2,2.4,1.4,3.3,0.4l0,0c0.8-0.9,0.6-2-0.8-3.4l-3.3-3l-2.6,2.9L56.9,236.2z M60.9,230.3
				c1.3,1.2,2.4,1.5,3.3,0.5l0,0c0.8-0.9,0.6-2-0.7-3.1l-2.8-2.6l-2.5,2.8L60.9,230.3z"/>
			<path fill="#FF5F58" d="M70.4,240.7L70.4,240.7c2.6-4.4,8.1-5.9,12.8-3.1s6,8.3,3.4,12.6l0,0c-2.6,4.3-8.1,5.8-12.8,3
				S67.9,245,70.4,240.7z M83.1,248.2L83.1,248.2c1.6-2.6,1-6-1.7-7.6c-2.7-1.6-5.8-0.6-7.4,2l0,0c-1.6,2.6-0.9,5.9,1.8,7.5
				S81.5,250.8,83.1,248.2z"/>
			<path fill="#FF5F58" d="M92.7,253.1L92.7,253.1c1.6-4.8,6.7-7.5,11.8-5.8c5.2,1.7,7.6,6.8,6,11.6l0,0c-1.6,4.8-6.6,7.4-11.8,5.7
				C93.5,262.9,91.1,257.8,92.7,253.1z M106.6,257.7L106.6,257.7c1-2.9-0.3-6-3.3-7c-3-1-5.8,0.7-6.8,3.6l0,0c-1,2.9,0.4,6,3.3,7
				S105.7,260.6,106.6,257.7z"/>
			<path fill="#FF5F58" d="M118.6,253.3c0.1-1.1,1.1-1.8,2.2-1.7s1.8,1.1,1.7,2.2l-0.7,5.9l8-6.2c0.5-0.4,1-0.6,1.7-0.6
				c1.1,0.1,1.7,1,1.6,2c-0.1,0.6-0.4,1-0.9,1.4l-5.5,4l4.6,7.4c0.3,0.4,0.4,0.8,0.4,1.4c-0.1,1.1-1,1.8-2.2,1.6
				c-0.8-0.1-1.2-0.5-1.5-1.1l-4.2-7.2l-2.5,1.8l-0.4,3.5c-0.1,1.1-1.1,1.8-2.2,1.7s-1.8-1.1-1.7-2.2L118.6,253.3z"/>
			<path fill="#FF5F58" d="M150.1,261.8L150.1,261.8c-0.9-5,2.3-9.7,7.6-10.7c5.4-1,9.9,2.3,10.8,7.3l0,0c0.9,4.9-2.3,9.7-7.7,10.7
				S151,266.7,150.1,261.8z M164.6,259.2L164.6,259.2c-0.5-3-3.2-5.1-6.3-4.6c-3.1,0.6-4.8,3.4-4.2,6.4l0,0c0.5,3,3.2,5.1,6.2,4.5
				C163.4,265,165.1,262.2,164.6,259.2z"/>
			<path fill="#FF5F58" d="M173.1,249.7c-0.4-1,0.1-2.1,1.1-2.5l9.2-3.6c0.9-0.4,1.9,0.1,2.3,1c0.4,0.9-0.1,1.9-1,2.3l-7.4,2.9
				l1.4,3.5l6.3-2.5c0.9-0.4,1.9,0.1,2.3,1c0.4,0.9-0.1,1.9-1,2.3l-6.3,2.5l1.8,4.7c0.4,1-0.1,2.1-1.1,2.5c-1,0.4-2.1-0.1-2.5-1.1
				L173.1,249.7z"/>
			<path fill="#FF5F58" d="M207.9,247.9c-0.5,0-1.1-0.2-1.5-0.7c-0.6-0.8-0.4-1.9,0.4-2.5c0.4-0.3,0.8-0.4,1.1-0.4
				c1.7,0,3.2-0.4,4.6-1.4c1.3-1,1.7-2,1-2.9l0,0c-0.6-0.8-1.4-0.8-4.2,0.3c-3.4,1.4-5.8,2-7.9-0.8l0,0c-1.9-2.6-1.1-5.8,1.8-8
				c1.7-1.3,3.5-2,5.4-2.1c0.5-0.1,1.2,0.1,1.6,0.7c0.6,0.8,0.4,1.9-0.4,2.5c-0.3,0.2-0.6,0.3-1,0.4c-1.5,0.2-2.7,0.5-3.7,1.3
				c-1.2,0.9-1.4,1.9-0.9,2.6l0,0c0.7,0.9,1.5,0.8,4.4-0.4c3.4-1.4,5.8-1.6,7.7,0.9l0,0c2.1,2.8,1.1,6-1.9,8.3
				C212.6,247,210.3,247.9,207.9,247.9z"/>
			<path fill="#FF5F58" d="M219.3,230.3L219.3,230.3c-3.8-3.4-4.2-9.1-0.5-13.1s9.3-4.2,13-0.8l0,0c3.7,3.4,4.1,9.1,0.5,13.1
				C228.6,233.5,223,233.7,219.3,230.3z M229.1,219.4L229.1,219.4c-2.3-2.1-5.6-2.1-7.7,0.2c-2.1,2.3-1.7,5.6,0.5,7.6l0,0
				c2.2,2,5.6,2.1,7.7-0.2C231.8,224.7,231.4,221.4,229.1,219.4z"/>
			<path fill="#FF5F58" d="M237,211.1l-7.2-4.2c-0.9-0.5-1.2-1.7-0.7-2.7s1.7-1.2,2.7-0.7l7.1,4.1c2.5,1.5,4.5,1,5.7-1.1
				c1.2-2,0.7-4-1.7-5.4l-7.2-4.2c-0.9-0.5-1.2-1.7-0.7-2.7c0.5-0.9,1.7-1.2,2.7-0.7l7.1,4.1c4.6,2.7,5.4,6.6,3,10.7
				C245.2,212.6,241.5,213.8,237,211.1z"/>
			<path fill="#FF5F58" d="M240.2,187.6c-1-0.4-1.5-1.5-1.2-2.5c0.4-1,1.5-1.5,2.5-1.2l11.6,4.2l2.5-6.8c0.3-0.9,1.3-1.4,2.3-1.1
				c0.9,0.3,1.4,1.3,1.1,2.3l-3.1,8.6c-0.4,1-1.5,1.5-2.5,1.2L240.2,187.6z"/>
			<path fill="#FF5F58" d="M259.7,173.1c-0.4,0.4-1,0.6-1.6,0.5c-1-0.2-1.6-1.1-1.4-2.1c0.1-0.5,0.3-0.8,0.5-1
				c1.2-1.1,2.1-2.5,2.4-4.2c0.3-1.6-0.2-2.6-1.2-2.8l0,0c-1-0.2-1.6,0.3-2.8,3.1c-1.5,3.3-2.9,5.4-6.4,4.8l0,0
				c-3.2-0.6-4.8-3.5-4.1-7c0.4-2.1,1.3-3.9,2.5-5.2c0.3-0.4,0.9-0.7,1.7-0.6c1,0.2,1.6,1.1,1.4,2.1c-0.1,0.4-0.2,0.7-0.4,0.9
				c-1,1.1-1.6,2.2-1.8,3.4c-0.3,1.5,0.3,2.4,1.1,2.5l0,0c1.1,0.2,1.6-0.5,3-3.3c1.6-3.4,3.2-5.1,6.2-4.6l0,0
				c3.5,0.6,4.9,3.6,4.2,7.4C262.5,169.2,261.4,171.4,259.7,173.1z"/>
		</g>
	</g>
</g>
</svg>
