<?xml version="1.0" encoding="utf-8"?>
<!-- Generator: Adobe Illustrator 18.0.0, SVG Export Plug-In . SVG Version: 6.00 Build 0)  -->
<!DOCTYPE svg PUBLIC "-//W3C//DTD SVG 1.1//EN" "http://www.w3.org/Graphics/SVG/1.1/DTD/svg11.dtd">
<svg version="1.1" id="Layer_1" xmlns="http://www.w3.org/2000/svg" xmlns:xlink="http://www.w3.org/1999/xlink" x="0px" y="0px"
	 viewBox="0 0 223.6 230" enable-background="new 0 0 223.6 230" xml:space="preserve">
<g>
	<g>
		<g>
			<g>
				<g>
					<defs>
						<path id="SVGID_1_" d="M200.9,116c-56.6-20-106.2,35.4-162.8,15.4c-3.3-35-6.6-69.9-9.9-104.9C84.8,46.6,134.3-8.9,191,11.1
							c-3.2,2-6.3,4.3-9.4,6.9c3.8,5,7.7,10.2,11.6,15.7c-3.9,2.3-7.8,5-11.6,8.1c4.7,5.7,9.4,11.7,14.1,18.1
							c-10.6,0.2-20.9,3.2-31,7.9c10.9,2.8,21.9,7.4,33.2,14.7c-2.4,2-4.9,4.2-7.3,6.5c-0.8,3.6-1.7,7.2-2.5,10.8
							C192.2,105,196.6,110.3,200.9,116z"/>
					</defs>
					<clipPath id="SVGID_2_">
						<use xlink:href="#SVGID_1_"  overflow="visible"/>
					</clipPath>
				</g>
				<g>
					<defs>
						<path id="SVGID_3_" d="M200.9,116c-56.6-20-106.2,35.4-162.8,15.4c-3.3-35-6.6-69.9-9.9-104.9C84.8,46.6,134.3-8.9,191,11.1
							c-3.2,2-6.3,4.3-9.4,6.9c3.8,5,7.7,10.2,11.6,15.7c-3.9,2.3-7.8,5-11.6,8.1c4.7,5.7,9.4,11.7,14.1,18.1
							c-10.6,0.2-20.9,3.2-31,7.9c10.9,2.8,21.9,7.4,33.2,14.7c-2.4,2-4.9,4.2-7.3,6.5c-0.8,3.6-1.7,7.2-2.5,10.8
							C192.2,105,196.6,110.3,200.9,116z"/>
					</defs>
					<clipPath id="SVGID_4_">
						<use xlink:href="#SVGID_3_"  overflow="visible"/>
					</clipPath>
					<g clip-path="url(#SVGID_4_)">
						<g>
							<path fill="#CD5F58" d="M128.9,113.5c-6.7,2.2-13.5,4.5-20.2,6.7c-0.5,0.2-0.9-0.1-1-0.6c-2.8-30-5.7-60-8.5-90.1
								c0-0.5,0.3-1,0.8-1.2c6.7-2.2,13.5-4.5,20.2-6.7c0.5-0.2,0.9,0.1,1,0.6c2.8,30,5.7,60,8.5,90.1
								C129.8,112.8,129.4,113.3,128.9,113.5z"/>
							<path fill="#CD5F58" d="M40.8,88.7c-0.5-5.2-1-10.4-1.5-15.6c0-0.5,0.3-0.8,0.8-0.7c51,12.2,96.7-32.5,147.8-19.9
								c0.5,0.1,6.1,0.6,6.2,1.1c0.5,5.2-4.2,10.4-3.7,15.6c0,0.5-0.3,0.8-0.8,0.7c-51.1-12.7-96.7,32-147.8,19.9
								C41.3,89.7,40.8,89.2,40.8,88.7z"/>
						</g>
						<path fill="#106580" d="M55.5,37.1c12.3-0.1,24.3-2.7,36.3-6.3c0.2-0.1,0.5,0.1,0.5,0.3c0.7,7.6,1.4,15.3,2.2,22.9
							c0,0.4-0.3,0.7-0.6,0.6c-12.7-4.1-25.4-9.1-38.5-16.7C55,37.7,55.1,37.1,55.5,37.1z"/>
						<path fill="#CD5F58" d="M36.7,42.8c14.3,11.5,28.2,19,41.9,24.7c0.1,0,0.2,0,0.2,0C82.4,66.8,86,66,89.6,65
							c0.4-0.1,0.6-0.8,0.2-0.9c-17.4-6-35-14.1-53.3-28.7c-0.3-0.3-0.7-0.1-0.7,0.2c0.2,2.3,0.4,4.6,0.6,6.9
							C36.4,42.6,36.5,42.7,36.7,42.8z"/>
						<path fill="#106580" d="M70.9,68.2c-10.4,1.4-20.9,1.3-31.7-1.3c-0.3-0.1-0.5-0.3-0.5-0.6c-0.6-6.5-1.2-13.1-1.9-19.6
							c0-0.4,0.4-0.5,0.7-0.2C48.9,55.6,60,62.2,71,67.4C71.4,67.6,71.3,68.2,70.9,68.2z"/>
						<path fill="#106580" d="M165.5,12.8c-12.3,0-24.3,2.6-36.3,6.1c-0.2,0.1-0.4,0.3-0.4,0.6c0.7,7.6,1.4,15.3,2.2,22.9
							c0,0.4,0.4,0.5,0.7,0.2c11.2-11.1,22.6-21.3,34.1-28.9C166.1,13.4,165.9,12.8,165.5,12.8z"/>
						<path fill="#106580" d="M156.2,45.6c10.4-1.3,20.9-1.1,31.7,1.6c0.3,0.1,0.4-0.1,0.4-0.3c-0.5-5.4,5.4-10,4.9-15.5
							c-0.1-1.1-5.8-3.7-5.9-4.9c0-0.4-1.3,0-1.6,0.1c-10.2,3.8-20.1,10.2-29.8,18.1C155.5,45.1,155.7,45.7,156.2,45.6z"/>
						<path fill="#106580" d="M174.2,104.7c-12.3,0-24.3,2.6-36.3,6.1c-0.2,0.1-0.5-0.1-0.5-0.3c-0.7-7.6-1.4-15.3-2.2-22.9
							c0-0.4,0.3-0.7,0.6-0.6c12.7,4.2,25.5,9.2,38.5,16.9C174.7,104.1,174.6,104.7,174.2,104.7z"/>
						<path fill="#CD5F58" d="M193,99.1c-14.3-11.7-28.2-19.3-42-25c-0.1,0-0.2,0-0.2,0c-3.6,0.7-7.2,1.5-10.7,2.5
							c-0.4,0.1-0.6,0.8-0.2,0.9c17.4,6.1,35.1,14.3,53.3,29.1c0.3,0.3,0.7,0.2,0.7-0.2c-0.2-2.3-0.4-4.6-0.6-6.9
							C193.3,99.4,193.2,99.2,193,99.1z"/>
						<path fill="#106580" d="M158.8,73.4c10.4-1.3,20.9-1.1,31.7,1.6c0.3,0.1,0.5,0.3,0.5,0.6c0.3,2.8,6.5,4.2,6.7,7
							c0.4,3.7-5.2,8.9-4.9,12.6c0,0.4-0.4,0.5-0.7,0.2c-11.4-9.2-22.5-15.9-33.5-21.1C158.3,74.1,158.4,73.5,158.8,73.4z"/>
						<path fill="#106580" d="M64.2,129c12.3-0.1,24.3-2.7,36.3-6.3c0.2-0.1,0.4-0.3,0.4-0.6c-0.7-7.6-1.4-15.3-2.2-22.9
							c0-0.4-0.4-0.5-0.7-0.2c-11.2,11.2-22.6,21.4-34.1,29.1C63.6,128.4,63.8,129,64.2,129z"/>
						<path fill="#106580" d="M73.5,96c-10.4,1.4-20.9,1.3-31.7-1.3c-0.3-0.1-0.4,0.1-0.4,0.3c0.6,6.5,1.2,13.1,1.9,19.6
							c0,0.4,0.5,0.7,0.8,0.6c10.1-3.9,20-10.4,29.8-18.4C74.2,96.5,73.9,96,73.5,96z"/>
						<path fill="#CD5F58" d="M45.2,126.8c3.4,0.8,6.9,1.4,10.3,1.7c0.1,0,0.2,0,0.2,0c14.5-7.7,28.5-20,42.4-33.6
							c0.1-0.1,0.2-0.3,0.2-0.4c-0.1-1.2-0.2-2.4-0.3-3.5c0-0.3-0.2-0.4-0.5-0.3c-1.6,0.5-3.2,0.9-4.8,1.4c-0.1,0-0.2,0.1-0.2,0.1
							c-15.5,14.9-31.2,27.6-47.6,33.8C44.5,126.1,44.7,126.7,45.2,126.8z"/>
						<path fill="#CD5F58" d="M183.7,14.9c-3.4-0.8-6.9-1.4-10.3-1.7c-0.1,0-0.2,0-0.2,0c-14.5,7.7-28.5,20-42.4,33.6
							c-0.1,0.1-0.2,0.3-0.2,0.4c0.1,1.2,0.2,2.4,0.3,3.5c0,0.2,0.2,0.4,0.5,0.3c1.6-0.5,3.2-0.9,4.8-1.4c0.1,0,0.2-0.1,0.2-0.1
							C152,34.8,167.7,22,184,15.8C184.4,15.7,184.2,15,183.7,14.9z"/>
					</g>
				</g>
				<g>
					<defs>
						<path id="SVGID_5_" d="M200.9,116c-56.6-20-106.2,35.4-162.8,15.4c-3.3-35-6.6-69.9-9.9-104.9C84.8,46.6,134.3-8.9,191,11.1
							c-3.2,2-6.3,4.3-9.4,6.9c3.8,5,7.7,10.2,11.6,15.7c-3.9,2.3-7.8,5-11.6,8.1c4.7,5.7,9.4,11.7,14.1,18.1
							c-10.6,0.2-20.9,3.2-31,7.9c10.9,2.8,21.9,7.4,33.2,14.7c-2.4,2-4.9,4.2-7.3,6.5c-0.8,3.6-1.7,7.2-2.5,10.8
							C192.2,105,196.6,110.3,200.9,116z"/>
					</defs>
					<clipPath id="SVGID_6_">
						<use xlink:href="#SVGID_5_"  overflow="visible"/>
					</clipPath>
				</g>
			</g>
			<path fill="#106581" d="M64.4,137.2c-9.4,0-18.1-1.5-26.7-4.5c-0.5-0.2-0.9-0.6-0.9-1.2L26.8,26.7c0-0.5,0.2-0.9,0.5-1.2
				s0.9-0.4,1.3-0.2c8.3,2.9,16.7,4.4,25.8,4.4c18.5,0,36.9-6.1,54.7-12.1c18-6,36.6-12.2,55.6-12.2c9.4,0,18.1,1.5,26.7,4.5
				c0.5,0.2,0.8,0.6,0.9,1.1s-0.2,1-0.6,1.3c-2.7,1.7-5.5,3.7-8.3,6c3.6,4.7,7.3,9.7,10.8,14.7c0.2,0.3,0.3,0.7,0.2,1.1
				c-0.1,0.4-0.3,0.7-0.6,0.9c-3.4,2-6.9,4.4-10.4,7.1c4.5,5.5,8.9,11.2,13.3,17.1c0.3,0.4,0.4,1,0.1,1.4c-0.2,0.5-0.7,0.8-1.2,0.8
				c-8.6,0.1-17.5,2.2-27,6.3c10.6,3.1,20.4,7.7,29.9,13.9c0.4,0.2,0.6,0.6,0.6,1.1c0,0.4-0.2,0.9-0.5,1.1c-2.3,1.9-4.6,3.9-6.9,6.2
				c-0.8,3.2-1.5,6.5-2.3,9.7c4.2,4.9,8.4,10.1,12.4,15.4c0.3,0.2,0.4,0.6,0.4,1c0,0.8-0.6,1.4-1.4,1.4c0,0,0,0,0,0
				c-0.2,0-0.3,0-0.5-0.1c-8.3-2.9-16.7-4.4-25.8-4.4c-18.5,0-36.9,6.1-54.7,12.1C102,131,83.4,137.2,64.4,137.2
				C64.4,137.2,64.4,137.2,64.4,137.2z M39.4,130.4c8,2.7,16.2,4.1,25,4.1c0,0,0,0,0,0c18.5,0,36.9-6.1,54.7-12.1
				c18-6,36.6-12.2,55.6-12.2c7.9,0,15.3,1,22.5,3.1c-3.4-4.3-6.8-8.5-10.2-12.5c-0.3-0.3-0.4-0.8-0.3-1.2c0.8-3.6,1.7-7.2,2.5-10.8
				c0.1-0.3,0.2-0.5,0.4-0.7c2-1.9,4-3.7,5.9-5.4c-9.9-6.2-20.1-10.7-31.2-13.5c-0.6-0.1-1-0.6-1-1.2c-0.1-0.6,0.3-1.1,0.8-1.4
				c10.3-4.8,19.8-7.4,29-8c-4.1-5.5-8.3-10.9-12.5-16c-0.2-0.3-0.3-0.6-0.3-1c0-0.4,0.2-0.7,0.5-0.9c3.5-2.8,7.1-5.3,10.5-7.4
				c-3.5-4.9-7.1-9.8-10.7-14.5c-0.5-0.6-0.4-1.4,0.2-1.9c2.4-2,4.8-3.8,7.2-5.4c-7.4-2.3-15.1-3.5-23.2-3.5
				c-18.5,0-36.9,6.1-54.7,12.1c-18,6-36.6,12.2-55.6,12.2c-8.7,0-16.8-1.3-24.7-3.8L39.4,130.4z"/>
		</g>
		<path fill="#106581" d="M35.9,161.3c-1,0-1.9-0.8-2-1.8L20.6,19.7c-0.1-1.1,0.7-2.1,1.8-2.2c1.1-0.1,2.1,0.7,2.2,1.8l13.2,139.9
			c0.1,1.1-0.7,2.1-1.8,2.2C36,161.3,35.9,161.3,35.9,161.3z"/>
	</g>
	<g>
		<path fill="#106580" d="M88.6,166.1c-1-1-1.6-2.5-1.6-5.2v0c0-4.2,1.9-7.5,6-7.5c1.4,0,2.5,0.3,3.3,0.8c0.5,0.3,0.8,0.7,0.8,1.3
			c0,0.8-0.6,1.4-1.4,1.4c-0.3,0-0.5-0.1-0.7-0.2c-0.6-0.4-1.2-0.5-2-0.5c-1.7,0-2.6,1.4-2.8,3.2c0.7-0.5,1.5-0.9,2.8-0.9
			c2.7,0,4.8,1.5,4.8,4.4v0c0,2.8-2.3,4.7-5.2,4.7C90.7,167.6,89.5,167.1,88.6,166.1z M94.8,163L94.8,163c0-1.2-0.9-2-2.4-2
			c-1.5,0-2.3,0.8-2.3,2v0c0,1.2,0.9,2,2.4,2C93.9,165,94.8,164.2,94.8,163z"/>
		<path fill="#106580" d="M105.8,166.1c-1-1-1.6-2.5-1.6-5.2v0c0-4.2,1.9-7.5,6-7.5c1.4,0,2.5,0.3,3.3,0.8c0.5,0.3,0.8,0.7,0.8,1.3
			c0,0.8-0.6,1.4-1.4,1.4c-0.3,0-0.5-0.1-0.7-0.2c-0.6-0.4-1.2-0.5-2-0.5c-1.7,0-2.6,1.4-2.8,3.2c0.7-0.5,1.5-0.9,2.8-0.9
			c2.7,0,4.8,1.5,4.8,4.4v0c0,2.8-2.3,4.7-5.2,4.7C108,167.6,106.8,167.1,105.8,166.1z M112,163L112,163c0-1.2-0.9-2-2.4-2
			c-1.5,0-2.3,0.8-2.3,2v0c0,1.2,0.9,2,2.4,2C111.2,165,112,164.2,112,163z"/>
		<path fill="#106580" d="M123.1,166.1c-1-1-1.6-2.5-1.6-5.2v0c0-4.2,1.9-7.5,6-7.5c1.4,0,2.5,0.3,3.3,0.8c0.5,0.3,0.8,0.7,0.8,1.3
			c0,0.8-0.6,1.4-1.4,1.4c-0.3,0-0.5-0.1-0.7-0.2c-0.6-0.4-1.2-0.5-2-0.5c-1.7,0-2.6,1.4-2.8,3.2c0.7-0.5,1.5-0.9,2.8-0.9
			c2.7,0,4.8,1.5,4.8,4.4v0c0,2.8-2.3,4.7-5.2,4.7C125.3,167.6,124,167.1,123.1,166.1z M129.3,163L129.3,163c0-1.2-0.9-2-2.4-2
			s-2.3,0.8-2.3,2v0c0,1.2,0.9,2,2.4,2S129.3,164.2,129.3,163z"/>
		<path fill="#CD5F58" d="M27.5,181.5h-2.9c-0.8,0-1.4-0.6-1.4-1.4c0-0.8,0.6-1.4,1.4-1.4h8.8c0.8,0,1.4,0.6,1.4,1.4
			c0,0.8-0.6,1.4-1.4,1.4h-2.9v9.5c0,0.8-0.7,1.5-1.5,1.5s-1.5-0.7-1.5-1.5V181.5z"/>
		<path fill="#CD5F58" d="M41.3,180.1c0-0.8,0.7-1.5,1.5-1.5s1.5,0.7,1.5,1.5v4h5.6v-4c0-0.8,0.7-1.5,1.5-1.5s1.5,0.7,1.5,1.5V191
			c0,0.8-0.7,1.5-1.5,1.5s-1.5-0.7-1.5-1.5v-4.1h-5.6v4.1c0,0.8-0.7,1.5-1.5,1.5s-1.5-0.7-1.5-1.5V180.1z"/>
		<path fill="#CD5F58" d="M60.5,190.9v-10.7c0-0.8,0.7-1.5,1.5-1.5h7.6c0.7,0,1.4,0.6,1.4,1.4c0,0.7-0.6,1.3-1.4,1.3h-6.1v2.8h5.2
			c0.7,0,1.4,0.6,1.4,1.4c0,0.7-0.6,1.3-1.4,1.3h-5.2v2.9h6.2c0.7,0,1.3,0.6,1.3,1.4s-0.6,1.3-1.3,1.3H62
			C61.1,192.4,60.5,191.8,60.5,190.9z"/>
		<path fill="#CD5F58" d="M88.1,180.1c0-0.8,0.7-1.5,1.5-1.5h0.3c0.7,0,1.2,0.4,1.6,0.9l5.8,7.6v-7.1c0-0.8,0.7-1.5,1.5-1.5
			s1.5,0.7,1.5,1.5V191c0,0.8-0.7,1.5-1.5,1.5h-0.1c-0.7,0-1.2-0.4-1.6-0.9l-6-7.9v7.3c0,0.8-0.7,1.5-1.5,1.5s-1.5-0.7-1.5-1.5
			V180.1z"/>
		<path fill="#CD5F58" d="M107.6,186.5v-6.4c0-0.8,0.7-1.5,1.5-1.5s1.5,0.7,1.5,1.5v6.4c0,2.2,1.1,3.4,3,3.4s3-1.1,3-3.3v-6.5
			c0-0.8,0.7-1.5,1.5-1.5s1.5,0.7,1.5,1.5v6.3c0,4.2-2.3,6.2-6,6.2C109.9,192.6,107.6,190.6,107.6,186.5z"/>
		<path fill="#CD5F58" d="M126.9,180.1c0-0.8,0.7-1.5,1.5-1.5h0.3c0.6,0,1.1,0.3,1.4,0.8l3.6,5.9l3.7-6c0.3-0.5,0.7-0.8,1.4-0.8h0.3
			c0.8,0,1.5,0.7,1.5,1.5V191c0,0.8-0.7,1.5-1.5,1.5c-0.8,0-1.5-0.7-1.5-1.5v-6.8l-2.6,4.1c-0.3,0.5-0.7,0.8-1.3,0.8
			c-0.5,0-0.9-0.3-1.3-0.8l-2.6-4v6.8c0,0.8-0.7,1.5-1.5,1.5s-1.5-0.6-1.5-1.5V180.1z"/>
		<path fill="#CD5F58" d="M148.2,180.2c0-0.8,0.7-1.5,1.5-1.5h4.9c1.6,0,2.8,0.4,3.6,1.2c0.6,0.6,0.9,1.4,0.9,2.3v0
			c0,1.5-0.8,2.4-1.8,3c1.6,0.6,2.6,1.5,2.6,3.4v0c0,2.5-2,3.8-5.1,3.8h-5c-0.8,0-1.5-0.7-1.5-1.5V180.2z M153.9,184.3
			c1.3,0,2.2-0.4,2.2-1.4v0c0-0.9-0.7-1.4-2-1.4h-3v2.9H153.9z M154.7,189.8c1.3,0,2.1-0.5,2.1-1.5v0c0-0.9-0.7-1.5-2.2-1.5h-3.5v3
			H154.7z"/>
		<path fill="#CD5F58" d="M166.7,190.9v-10.7c0-0.8,0.7-1.5,1.5-1.5h7.6c0.7,0,1.4,0.6,1.4,1.4c0,0.7-0.6,1.3-1.4,1.3h-6.1v2.8h5.2
			c0.7,0,1.4,0.6,1.4,1.4c0,0.7-0.6,1.3-1.4,1.3h-5.2v2.9h6.2c0.7,0,1.4,0.6,1.4,1.4s-0.6,1.3-1.4,1.3h-7.7
			C167.3,192.4,166.7,191.8,166.7,190.9z"/>
		<path fill="#CD5F58" d="M184.1,180.2c0-0.8,0.7-1.5,1.5-1.5h4.8c1.7,0,3.1,0.5,4,1.4c0.8,0.8,1.2,1.8,1.2,3.1v0
			c0,2.2-1.1,3.5-2.7,4.2l2.1,2.5c0.3,0.4,0.5,0.7,0.5,1.2c0,0.8-0.7,1.4-1.4,1.4c-0.7,0-1.1-0.3-1.5-0.8l-2.9-3.7h-2.4v3
			c0,0.8-0.7,1.5-1.5,1.5s-1.5-0.7-1.5-1.5V180.2z M190.2,185.4c1.5,0,2.3-0.8,2.3-1.9v0c0-1.3-0.9-2-2.4-2h-3v3.9H190.2z"/>
		<path fill="#CD5F58" d="M12.5,210.7L12.5,210.7c0-3.9,3.1-7.1,7.3-7.1s7.3,3.2,7.3,7v0c0,3.9-3.1,7.1-7.3,7.1
			S12.5,214.6,12.5,210.7z M23.9,210.7L23.9,210.7c0-2.4-1.7-4.3-4.2-4.3c-2.4,0-4.1,1.9-4.1,4.3v0c0,2.3,1.7,4.3,4.2,4.3
			S23.9,213,23.9,210.7z"/>
		<path fill="#CD5F58" d="M34.1,205.3c0-0.8,0.7-1.5,1.5-1.5h7.7c0.8,0,1.4,0.6,1.4,1.4c0,0.8-0.6,1.4-1.4,1.4h-6.2v2.9h5.3
			c0.8,0,1.4,0.6,1.4,1.4s-0.6,1.4-1.4,1.4h-5.3v3.9c0,0.8-0.7,1.5-1.5,1.5s-1.5-0.7-1.5-1.5V205.3z"/>
		<path fill="#CD5F58" d="M64.6,206.6h-2.9c-0.8,0-1.4-0.6-1.4-1.4c0-0.8,0.6-1.4,1.4-1.4h8.8c0.8,0,1.4,0.6,1.4,1.4
			c0,0.8-0.6,1.4-1.4,1.4h-2.9v9.5c0,0.8-0.7,1.5-1.5,1.5s-1.5-0.7-1.5-1.5V206.6z"/>
		<path fill="#CD5F58" d="M78.4,205.2c0-0.8,0.7-1.5,1.5-1.5s1.5,0.7,1.5,1.5v4h5.6v-4c0-0.8,0.7-1.5,1.5-1.5s1.5,0.7,1.5,1.5v10.9
			c0,0.8-0.7,1.5-1.5,1.5s-1.5-0.7-1.5-1.5V212h-5.6v4.1c0,0.8-0.7,1.5-1.5,1.5s-1.5-0.7-1.5-1.5V205.2z"/>
		<path fill="#CD5F58" d="M97.5,216v-10.7c0-0.8,0.7-1.5,1.5-1.5h7.6c0.7,0,1.4,0.6,1.4,1.4c0,0.7-0.6,1.3-1.4,1.3h-6.1v2.8h5.2
			c0.7,0,1.4,0.6,1.4,1.4c0,0.7-0.6,1.3-1.4,1.3h-5.2v2.9h6.2c0.7,0,1.4,0.6,1.4,1.4s-0.6,1.3-1.4,1.3h-7.7
			C98.2,217.5,97.5,216.8,97.5,216z"/>
		<path fill="#CD5F58" d="M125.1,205.3c0-0.8,0.7-1.5,1.5-1.5h4.9c1.6,0,2.8,0.4,3.6,1.2c0.6,0.6,0.9,1.4,0.9,2.3v0
			c0,1.5-0.8,2.4-1.8,3c1.6,0.6,2.6,1.5,2.6,3.4v0c0,2.5-2,3.8-5.1,3.8h-5c-0.8,0-1.5-0.7-1.5-1.5V205.3z M130.9,209.3
			c1.3,0,2.2-0.4,2.2-1.4v0c0-0.9-0.7-1.4-2-1.4h-3v2.9H130.9z M131.7,214.8c1.3,0,2.1-0.5,2.1-1.5v0c0-0.9-0.7-1.5-2.2-1.5h-3.5v3
			H131.7z"/>
		<path fill="#CD5F58" d="M143.6,216v-10.7c0-0.8,0.7-1.5,1.5-1.5h7.6c0.7,0,1.4,0.6,1.4,1.4c0,0.7-0.6,1.3-1.4,1.3h-6.1v2.8h5.2
			c0.7,0,1.4,0.6,1.4,1.4c0,0.7-0.6,1.3-1.4,1.3h-5.2v2.9h6.2c0.7,0,1.4,0.6,1.4,1.4s-0.6,1.3-1.4,1.3h-7.7
			C144.2,217.5,143.6,216.8,143.6,216z"/>
		<path fill="#CD5F58" d="M160.2,215.6l4.8-10.8c0.3-0.7,0.9-1.2,1.8-1.2h0.2c0.8,0,1.4,0.5,1.7,1.2l4.8,10.8
			c0.1,0.2,0.2,0.4,0.2,0.6c0,0.8-0.6,1.4-1.4,1.4c-0.7,0-1.2-0.4-1.4-1l-0.9-2.2h-6l-1,2.3c-0.3,0.6-0.8,0.9-1.4,0.9
			c-0.8,0-1.4-0.6-1.4-1.4C160.1,216,160.1,215.8,160.2,215.6z M168.7,211.8l-1.9-4.5l-1.9,4.5H168.7z"/>
		<path fill="#CD5F58" d="M179.9,216c-0.3-0.2-0.6-0.7-0.6-1.1c0-0.8,0.6-1.4,1.4-1.4c0.4,0,0.7,0.1,0.9,0.3c1,0.8,2.2,1.2,3.5,1.2
			c1.2,0,2-0.5,2-1.3v0c0-0.8-0.5-1.2-2.8-1.7c-2.8-0.7-4.5-1.5-4.5-4.2v0c0-2.5,2-4.1,4.8-4.1c1.7,0,3.1,0.4,4.3,1.2
			c0.3,0.2,0.7,0.6,0.7,1.2c0,0.8-0.6,1.4-1.4,1.4c-0.3,0-0.5-0.1-0.8-0.2c-1-0.6-1.9-0.9-2.9-0.9c-1.2,0-1.8,0.5-1.8,1.2v0
			c0,0.9,0.6,1.2,3,1.8c2.8,0.7,4.3,1.7,4.3,4.1v0c0,2.7-2.1,4.2-5,4.2C183.3,217.7,181.4,217.1,179.9,216z"/>
		<path fill="#CD5F58" d="M199.9,206.6H197c-0.8,0-1.4-0.6-1.4-1.4c0-0.8,0.6-1.4,1.4-1.4h8.8c0.8,0,1.4,0.6,1.4,1.4
			c0,0.8-0.6,1.4-1.4,1.4h-2.9v9.5c0,0.8-0.7,1.5-1.5,1.5s-1.5-0.7-1.5-1.5V206.6z"/>
	</g>
</g>
</svg>
